<?xml version="1.0" encoding="UTF-8"?>
<svg version="1.1" viewBox="0 0 878.95 145.38" xmlns="http://www.w3.org/2000/svg">
<g transform="matrix(1.3333 0 0 -1.3333 -137.64 282.65)">
<g transform="scale(.1)">
<path d="m7469 1195.3v49.88h40.25c17.14 0 35.13-3.47 35.13-24.99 0-21.53-17.99-24.89-35.13-24.89zm93.97 27.01c-1.39 29.71-25.38 35.06-49.84 35.06h-61.4v-140.4h17.27v64.71h31.58c13.4-21.58 26.77-43.16 40.15-64.71h20.59c-14.17 21.62-28.3 43.28-42.46 64.92 26.74 1.11 45.46 10.49 44.11 40.42" fill="#231f20"/>
<path d="m7498.6 1077.8c-60.05 0-105.61 50.57-105.61 109.14 0 58.68 45.56 109.31 105.61 109.31 59.91 0 105.54-50.63 105.54-109.31 0-58.57-45.63-109.14-105.54-109.14m0 235.01c-69.53 0-125.87-56.3-125.87-125.87 0-69.45 56.34-125.74 125.87-125.74 69.51 0 125.8 56.29 125.8 125.74 0 69.57-56.29 125.87-125.8 125.87" fill="#231f20"/>
<path d="m3539.8 1650.1c25.4-324.38-240.99-610.34-563.65-620.3-341.01-10.55-587.76 286.9-520.39 620.3h1084" fill="#e71933"/>
<path d="m3505.9 1798.4c-79.63 204.55-276.91 326.97-493.08 321.32-213.42-5.51-408.13-133-504.92-321.32h998" fill="#e71933"/>
<path d="m1363.2 1650.1h582.65c40.26 0 75.22 32.68 78.94 72.78 3.85 41.89-27.69 75.52-69.76 75.52h-697.43c29.52 85.87 59.05 171.71 88.58 257.61 7.59 21.98 28.84 37.64 52.31 37.64h613.99c209.04 0 366.03-171.92 346.66-380-18.47-199.28-192.21-357.64-392.3-357.73-127.86-0.07-255.71-0.1-383.56-0.13-35.66-0.02-66.38-22.43-77.29-54.14-23.22-67.56-46.44-135.13-69.67-202.67-7.57-22.01-28.74-37.73-52.17-37.73h-282.75c-50.07 0-80.95 47.57-64.86 94.37 39.5 114.85 79 229.7 118.49 344.55 30.25 87.98 114.37 149.93 208.17 149.93" fill="#231f20"/>
<path d="m6770.4 1061.2c-21.77 81.48-43.57 162.91-65.37 244.39-8.28 30.89-34.28 50.19-65.93 50.19-30.2-0.01-60.4-0.04-90.61-0.04-35.65-0.02-66.38-22.43-77.29-54.14-23.23-67.56-46.45-135.13-69.65-202.67-7.59-22.01-28.75-37.73-52.22-37.73h-282.72c-50.07 0-80.97 47.57-64.85 94.37 39.5 114.85 78.99 229.7 118.48 344.57 30.25 87.96 114.37 149.91 208.16 149.91h582.65c40.27 0 75.24 32.68 78.95 72.78 3.86 41.89-27.7 75.52-69.76 75.52h-697.42c29.51 85.87 59.03 171.73 88.58 257.61 7.57 21.98 28.83 37.64 52.31 37.64h613.98c209.05 0 366.04-171.92 346.67-380-13.04-140.53-103.3-260.7-225.53-319.38 29.79-110.57 59.5-221.17 89.3-333.02h-417.73" fill="#231f20"/>
<path d="m4205.9 1798.4c26.3 76.51 52.62 153.04 78.94 229.58 11.2 32.51-10.64 65.67-45.49 65.67h-310.06c-23.47 0-44.73-15.66-52.32-37.64-29.51-85.88-59.05-171.74-88.58-257.61h417.51" fill="#231f20"/>
<path d="m4463.7 1061.2h-831.49c-50.07 0-80.95 47.57-64.83 94.37 56.68 164.82 113.35 329.65 170.02 494.48h417.51c-19.43-56.47-38.83-112.95-58.26-169.41-16.09-46.79 15.49-94.35 65.48-94.35h354.26c50.08 0 81.97-47.47 65.91-94.2l-66.44-193.16c-7.57-22.01-28.73-37.73-52.16-37.73" fill="#231f20"/>
<path d="m5424 2073.8c-76.59-91.82-153.13-183.65-229.73-275.46h618.8c-7.71 84-15.45 168.03-23.15 252.04-2.35 25.39-23.16 43.21-48.56 43.21h-275.11c-16.4 0-31.83-7.28-42.25-19.79" fill="#231f20"/>
<path d="m5507.6 1061.2h312.8c31.45 0 57.79 28.63 54.92 60.17-16.19 176.21-32.44 352.44-48.63 528.68h-756.08c-130.43-156.37-260.81-312.75-391.2-469.1-39.68-47.57-11.93-119.75 51.67-119.75h248.51c16.39 0 31.91 8.11 42.28 20.59 68.47 82.05 136.87 164.09 205.34 246.15 14.98 17.97 37.36 27.86 60.85 27.86h83.92c36.45 0 66.41-25.24 69.77-61.79 5.75-62.88 11.57-125.78 17.36-188.66 2.33-25.39 23.13-44.15 48.49-44.15" fill="#231f20"/>
</g>
</g>
</svg>
